# xmcd
#
# Track frame offsets: 
#        150
#        24822
#        51628
#        72409
#        98866
#        117195
#        134367
#        159884
#        178221
#        199405
#        220110
#        243570
#
# Disc length: 3589 seconds
#
# Revision: 0
# Processed by: cddbd v1.5.2PL0 Copyright (c) Steve Scherf et al.
# Submitted via: ExactAudioCopy v1.0b3
#
DISCID=af0e030c
DTITLE=Tiara - Emotion
DYEAR=2013
DGENRE=R&B
TTITLE0=ただいまと言えるまで
TTITLE1=あなたのとなり
TTITLE2=アンブレラ
TTITLE3=I Miss You
TTITLE4=カムフラージュ
TTITLE5=ゆみはりづき
TTITLE6=Valentine Eve
TTITLE7=フィナーレ
TTITLE8=Everlasting Love
TTITLE9=初恋
TTITLE10=あの花みたいに
TTITLE11=Winding Road
EXTD=
EXTT0=
EXTT1=
EXTT2=
EXTT3=
EXTT4=
EXTT5=
EXTT6=
EXTT7=
EXTT8=
EXTT9=
EXTT10=
EXTT11=
PLAYORDER=
